<svg xmlns="http://www.w3.org/2000/svg" viewBox="0 0 1060 760" font-family="Arial, sans-serif">
  <rect x="0" y="0" width="1060" height="760" fill="#f5f6fa"/>

  <!-- ═══════════════════════ TITLE ═══════════════════════ -->
  <rect x="0" y="0" width="1060" height="62" fill="#1a2640"/>
  <text x="530" y="24" text-anchor="middle" font-size="18" font-weight="bold" fill="#ffffff">Hull Construction — Step-by-Step Visual Guide</text>
  <text x="530" y="44" text-anchor="middle" font-size="11" fill="#aab8cc">ASV Foam-and-Deck Catamaran (Size B) · Pool test #1 fixed: Week 9 (Jul 20) · Read left column top→bottom, then right column top→bottom</text>
  <text x="530" y="57" text-anchor="middle" font-size="10" fill="#6e86a0">Reference: hull_construction_guide.md · vehicle_top_view.svg · vehicle_side_view.svg · wiring_overview.svg</text>

  <!-- Column headers -->
  <text x="260" y="76" text-anchor="middle" font-size="12" font-weight="bold" fill="#444">◀ PHASES 1–5 (left column)</text>
  <text x="800" y="76" text-anchor="middle" font-size="12" font-weight="bold" fill="#444">PHASES 6–9 (right column) ▶</text>

  <defs>
    <marker id="arrowFlow" markerWidth="8" markerHeight="8" refX="6" refY="3" orient="auto">
      <path d="M0,0 L0,6 L8,3 z" fill="#555"/>
    </marker>
    <marker id="arrowCross" markerWidth="8" markerHeight="8" refX="6" refY="3" orient="auto">
      <path d="M0,0 L0,6 L8,3 z" fill="#2980b9"/>
    </marker>
    <filter id="shadow" x="-5%" y="-5%" width="110%" height="115%">
      <feDropShadow dx="1" dy="2" stdDeviation="2" flood-color="#00000022"/>
    </filter>
  </defs>

  <!-- ═══════════════════════════════════════════════════════
       CARD MACRO — each card is defined with these layers:
       1. shadow  2. card body  3. color band  4. badge circle
       5. title + duration  6. description  7. icon  8. file ref
       ═══════════════════════════════════════════════════════ -->

  <!-- ──────────────────── PHASE 1 ──────────────────── -->
  <!-- color: #7f8c8d (gray / Preparation) y=82 -->
  <rect x="32" y="84" width="460" height="92" rx="8" fill="#c8cacc" opacity="0.5"/>
  <rect x="30" y="82" width="460" height="92" rx="8" fill="white" filter="url(#shadow)"/>
  <rect x="30" y="82" width="12" height="92" rx="6" fill="#7f8c8d"/>
  <circle cx="60" cy="128" r="18" fill="#7f8c8d"/>
  <text x="60" y="133" text-anchor="middle" font-size="15" font-weight="bold" fill="white">1</text>
  <text x="86" y="100" font-size="13" font-weight="bold" fill="#1a1a1a">Cut &amp; Prep All Components</text>
  <rect x="400" y="83" width="82" height="17" rx="8" fill="#ecf0f1"/>
  <text x="441" y="95" text-anchor="middle" font-size="9" fill="#555">~30 min</text>
  <text x="86" y="117" font-size="10" fill="#333">2× 500mm core rods · 6× 500mm noodles · 350×200mm deck</text>
  <text x="86" y="131" font-size="10" fill="#333">500mm dowel mast · aluminum L-bracket · sand deck edges</text>
  <text x="86" y="146" font-size="9" fill="#888">Dry-fit everything before sealing or fastening anything</text>
  <!-- file ref badge -->
  <rect x="86" y="155" width="140" height="14" rx="7" fill="#eaf2ff" stroke="#2471a3" stroke-width="0.8"/>
  <text x="156" y="165" text-anchor="middle" font-size="8" fill="#1a5276">↗ vehicle_top_view.svg</text>
  <!-- icon: noodle + rod with cut mark -->
  <g transform="translate(390,90)">
    <rect x="5" y="12" width="56" height="12" rx="6" fill="#f5cba7" stroke="#b9770e" stroke-width="1"/>
    <rect x="5" y="32" width="56" height="12" rx="6" fill="#f5cba7" stroke="#b9770e" stroke-width="1"/>
    <line x1="28" y1="6" x2="40" y2="62" stroke="#e74c3c" stroke-width="3"/>
    <line x1="36" y1="6" x2="48" y2="62" stroke="#e74c3c" stroke-width="1.5" opacity="0.5"/>
    <text x="33" y="80" text-anchor="middle" font-size="8" fill="#888">CUT</text>
  </g>

  <!-- down arrow 1→2 -->
  <line x1="260" y1="174" x2="260" y2="188" stroke="#555" stroke-width="2" marker-end="url(#arrowFlow)"/>

  <!-- ──────────────────── PHASE 2 ──────────────────── -->
  <!-- color: #2980b9 (blue / Sealing) y=190 -->
  <rect x="32" y="192" width="460" height="92" rx="8" fill="#a9cde8" opacity="0.5"/>
  <rect x="30" y="190" width="460" height="92" rx="8" fill="white" filter="url(#shadow)"/>
  <rect x="30" y="190" width="12" height="92" rx="6" fill="#2980b9"/>
  <circle cx="60" cy="236" r="18" fill="#2980b9"/>
  <text x="60" y="241" text-anchor="middle" font-size="15" font-weight="bold" fill="white">2</text>
  <text x="86" y="208" font-size="13" font-weight="bold" fill="#1a1a1a">Seal the Deck</text>
  <rect x="380" y="191" width="132" height="17" rx="8" fill="#ecf0f1"/>
  <text x="446" y="203" text-anchor="middle" font-size="9" fill="#555">30 min + same-day dry</text>
  <text x="86" y="225" font-size="10" fill="#333">One coat spray Spar Urethane on all faces + cut edges</text>
  <text x="86" y="239" font-size="10" fill="#333">Only waterproofing step in the entire build — no reapplication needed</text>
  <text x="86" y="254" font-size="9" fill="#888">Dries in 1–2hr — noodle lashing (Phase 3) can proceed while it dries</text>
  <rect x="86" y="263" width="160" height="14" rx="7" fill="#fef9e7" stroke="#d68910" stroke-width="0.8"/>
  <text x="166" y="273" text-anchor="middle" font-size="8" fill="#7d6608">↗ hull_construction_guide.md</text>
  <!-- icon: wood panel + sealant can -->
  <g transform="translate(390,198)">
    <rect x="14" y="22" width="38" height="14" rx="2" fill="#e8d5b0" stroke="#9a6a1f" stroke-width="1"/>
    <rect x="24" y="4"  width="16" height="16" rx="2" fill="#999" stroke="#666" stroke-width="1"/>
    <path d="M50,55 Q57,45 57,52 Q57,60 50,60 Q43,60 43,52 Q43,45 50,55 Z" fill="#d68910" opacity="0.7"/>
    <text x="33" y="80" text-anchor="middle" font-size="8" fill="#888">SEALED</text>
  </g>

  <!-- ✓ SAME-DAY DRY (no cure gate) -->
  <rect x="40" y="286" width="440" height="24" rx="12" fill="#eafaf1" stroke="#27ae60" stroke-width="1.5"/>
  <text x="260" y="302" text-anchor="middle" font-size="11" fill="#1e8449" font-weight="bold">✓  SAME-DAY DRY ONLY — no structural cure gate, proceed to Phase 3 in parallel</text>

  <!-- down arrow 2→3 -->
  <line x1="260" y1="310" x2="260" y2="324" stroke="#555" stroke-width="2" marker-end="url(#arrowFlow)"/>

  <!-- ──────────────────── PHASE 3 ──────────────────── -->
  <!-- color: #d68910 (amber / Lashing) y=326 -->
  <rect x="32" y="328" width="460" height="92" rx="8" fill="#f5cba7" opacity="0.5"/>
  <rect x="30" y="326" width="460" height="92" rx="8" fill="white" filter="url(#shadow)"/>
  <rect x="30" y="326" width="12" height="92" rx="6" fill="#d68910"/>
  <circle cx="60" cy="372" r="18" fill="#d68910"/>
  <text x="60" y="377" text-anchor="middle" font-size="15" font-weight="bold" fill="white">3</text>
  <text x="86" y="344" font-size="13" font-weight="bold" fill="#1a1a1a">Lash Noodle Bundles to Core Rods</text>
  <rect x="400" y="327" width="82" height="17" rx="8" fill="#ecf0f1"/>
  <text x="441" y="339" text-anchor="middle" font-size="9" fill="#555">~30 min</text>
  <text x="86" y="361" font-size="10" fill="#333">Thread 3 noodles per rod, bundle triangularly around the core</text>
  <text x="86" y="375" font-size="10" fill="#333">Zip-tie lash every ~120mm — 4 ties per rod, trim tails flush</text>
  <text x="86" y="390" font-size="9" fill="#888">Rod is the structural spine; foam needs zero waterproofing</text>
  <rect x="86" y="399" width="140" height="14" rx="7" fill="#eaf2ff" stroke="#2471a3" stroke-width="0.8"/>
  <text x="156" y="409" text-anchor="middle" font-size="8" fill="#1a5276">↗ vehicle_top_view.svg</text>
  <!-- icon: bundled noodle cross-section -->
  <g transform="translate(390,332)">
    <circle cx="23" cy="35" r="16" fill="none" stroke="#ccc" stroke-width="1" stroke-dasharray="2,2"/>
    <circle cx="14" cy="42" r="8" fill="#f5cba7" stroke="#b9770e" stroke-width="1"/>
    <circle cx="32" cy="42" r="8" fill="#f5cba7" stroke="#b9770e" stroke-width="1"/>
    <circle cx="23" cy="26" r="8" fill="#f5cba7" stroke="#b9770e" stroke-width="1"/>
    <circle cx="23" cy="35" r="2.5" fill="#aaa" stroke="#666" stroke-width="0.8"/>
    <text x="34" y="80" text-anchor="middle" font-size="8" fill="#888">LASH</text>
  </g>

  <!-- down arrow 3→4 -->
  <line x1="260" y1="418" x2="260" y2="432" stroke="#555" stroke-width="2" marker-end="url(#arrowFlow)"/>

  <!-- ──────────────────── PHASE 4 ──────────────────── -->
  <!-- color: #e67e22 (orange / Structural) y=434 -->
  <rect x="32" y="436" width="460" height="92" rx="8" fill="#f5cba7" opacity="0.5"/>
  <rect x="30" y="434" width="460" height="92" rx="8" fill="white" filter="url(#shadow)"/>
  <rect x="30" y="434" width="12" height="92" rx="6" fill="#e67e22"/>
  <circle cx="60" cy="480" r="18" fill="#e67e22"/>
  <text x="60" y="485" text-anchor="middle" font-size="15" font-weight="bold" fill="white">4</text>
  <text x="86" y="452" font-size="13" font-weight="bold" fill="#1a1a1a">Mount Core Rods to Deck</text>
  <rect x="400" y="435" width="82" height="17" rx="8" fill="#ecf0f1"/>
  <text x="441" y="447" text-anchor="middle" font-size="9" fill="#555">~30 min</text>
  <text x="86" y="469" font-size="10" fill="#333">Position rods parallel at 350mm beam, deck centered between</text>
  <text x="86" y="483" font-size="10" fill="#333">4× galvanized &#189;" pipe straps (2/rod) screwed through sealed deck</text>
  <text x="86" y="498" font-size="9" fill="#888">All mechanical — fully reversible, no cure wait</text>
  <rect x="86" y="507" width="160" height="14" rx="7" fill="#fef9e7" stroke="#d68910" stroke-width="0.8"/>
  <text x="166" y="517" text-anchor="middle" font-size="8" fill="#7d6608">↗ hull_construction_guide.md</text>
  <!-- icon: pipe strap fastening -->
  <g transform="translate(390,440)">
    <rect x="6" y="40" width="56" height="10" rx="5" fill="#f5cba7" stroke="#b9770e" stroke-width="1"/>
    <rect x="24" y="20" width="16" height="26" fill="#aaaaaa" stroke="#555555" stroke-width="1"/>
    <rect x="14" y="10" width="36" height="10" fill="#e8d5b0" stroke="#9a6a1f" stroke-width="1"/>
    <text x="33" y="86" text-anchor="middle" font-size="8" fill="#888">STRAP</text>
  </g>

  <!-- down arrow 4→5 -->
  <line x1="260" y1="526" x2="260" y2="540" stroke="#555" stroke-width="2" marker-end="url(#arrowFlow)"/>

  <!-- ──────────────────── PHASE 5 ──────────────────── -->
  <!-- color: #8e44ad (purple / Mounting) y=542 -->
  <rect x="32" y="544" width="460" height="92" rx="8" fill="#d2b4de" opacity="0.5"/>
  <rect x="30" y="542" width="460" height="92" rx="8" fill="white" filter="url(#shadow)"/>
  <rect x="30" y="542" width="12" height="92" rx="6" fill="#8e44ad"/>
  <circle cx="60" cy="588" r="18" fill="#8e44ad"/>
  <text x="60" y="593" text-anchor="middle" font-size="15" font-weight="bold" fill="white">5</text>
  <text x="86" y="560" font-size="13" font-weight="bold" fill="#1a1a1a">Mast Installation</text>
  <rect x="400" y="543" width="82" height="17" rx="8" fill="#ecf0f1"/>
  <text x="441" y="555" text-anchor="middle" font-size="9" fill="#555">~20 min</text>
  <text x="86" y="577" font-size="10" fill="#333">Aluminum L-bracket screwed to deck at bow center</text>
  <text x="86" y="591" font-size="10" fill="#333">Dowel mast vertical · TCT40-16R at tip, facing forward</text>
  <text x="86" y="606" font-size="9" fill="#888">Zip-tie RX coax down mast every ~50mm to enclosure gland</text>
  <rect x="86" y="615" width="150" height="14" rx="7" fill="#eaf2ff" stroke="#2471a3" stroke-width="0.8"/>
  <text x="161" y="625" text-anchor="middle" font-size="8" fill="#1a5276">↗ vehicle_side_view.svg</text>
  <!-- icon: mast + transducer on deck -->
  <g transform="translate(390,548)">
    <line x1="4" y1="64" x2="64" y2="64" stroke="#9a6a1f" stroke-width="4"/>
    <rect x="30" y="12" width="8" height="52" fill="#d7bfa3" stroke="#7d5a1e" stroke-width="1"/>
    <rect x="22" y="6" width="24" height="10" rx="3" fill="#f1c40f" stroke="#9a7d0a" stroke-width="1.5"/>
    <line x1="10" y1="64" x2="30" y2="58" stroke="#888" stroke-width="3"/>
    <text x="34" y="82" text-anchor="middle" font-size="8" fill="#888">MAST</text>
  </g>

  <!-- ═══════════════ CROSS-COLUMN CONNECTOR ═══════════════ -->
  <!-- Curved path from Phase 5 right edge (490,588) to Phase 6 left edge (570,122) -->
  <path d="M 490,588 C 530,588 530,122 570,122" fill="none" stroke="#2980b9" stroke-width="2.5" stroke-dasharray="6,4" marker-end="url(#arrowCross)"/>
  <rect x="496" y="360" width="62" height="22" rx="11" fill="#2980b9"/>
  <text x="527" y="375" text-anchor="middle" font-size="10" fill="white" font-weight="bold">→ cont.</text>

  <!-- ═══════════════════════════════════════════════════════
       RIGHT COLUMN  (x=570)
       ═══════════════════════════════════════════════════════ -->

  <!-- ──────────────────── PHASE 6 ──────────────────── -->
  <!-- color: #16a085 (teal / Testing) y=82 -->
  <rect x="572" y="84" width="460" height="92" rx="8" fill="#a2d9ce" opacity="0.5"/>
  <rect x="570" y="82" width="460" height="92" rx="8" fill="white" filter="url(#shadow)"/>
  <rect x="570" y="82" width="12" height="92" rx="6" fill="#16a085"/>
  <circle cx="600" cy="128" r="18" fill="#16a085"/>
  <text x="600" y="133" text-anchor="middle" font-size="15" font-weight="bold" fill="white">6</text>
  <text x="626" y="100" font-size="13" font-weight="bold" fill="#1a1a1a">Float Test &amp; Waterline Check</text>
  <rect x="940" y="83" width="82" height="17" rx="8" fill="#ecf0f1"/>
  <text x="981" y="95" text-anchor="middle" font-size="9" fill="#555">~30 min</text>
  <text x="626" y="117" font-size="10" fill="#333">Bare hull in pool/tub · mark actual waterline on each pontoon</text>
  <text x="626" y="131" font-size="10" fill="#333">Check trim · repeat loaded with ~400g dead weight · verify mast height</text>
  <text x="626" y="146" font-size="9" fill="#888">Expect ~1.9× buoyancy margin at rest (4.7kg lift vs 2.5kg target)</text>
  <rect x="626" y="155" width="150" height="14" rx="7" fill="#eaf2ff" stroke="#2471a3" stroke-width="0.8"/>
  <text x="701" y="165" text-anchor="middle" font-size="8" fill="#1a5276">↗ vehicle_side_view.svg</text>
  <!-- icon: hull in water (tub) -->
  <g transform="translate(928,90)">
    <rect x="4" y="44" width="60" height="28" rx="3" fill="#d6eaf8"/>
    <path d="M4,44 L4,72 L64,72 L64,44" fill="none" stroke="#2980b9" stroke-width="2"/>
    <line x1="4" y1="52" x2="64" y2="52" stroke="#2980b9" stroke-width="1.5" stroke-dasharray="4,3"/>
    <rect x="14" y="44" width="40" height="10" rx="5" fill="#f5cba7" stroke="#b9770e" stroke-width="1"/>
    <text x="34" y="82" text-anchor="middle" font-size="8" fill="#888">FLOAT</text>
  </g>

  <!-- down arrow 6→7 -->
  <line x1="800" y1="174" x2="800" y2="188" stroke="#555" stroke-width="2" marker-end="url(#arrowFlow)"/>

  <!-- ──────────────────── PHASE 7 ──────────────────── -->
  <!-- color: #e74c3c (red / GATED) y=190 -->
  <rect x="572" y="192" width="460" height="92" rx="8" fill="#f1948a" opacity="0.5"/>
  <rect x="570" y="190" width="460" height="92" rx="8" fill="white" filter="url(#shadow)"/>
  <rect x="570" y="190" width="12" height="92" rx="6" fill="#e74c3c"/>
  <circle cx="600" cy="236" r="18" fill="#e74c3c"/>
  <text x="600" y="241" text-anchor="middle" font-size="15" font-weight="bold" fill="white">7</text>
  <text x="626" y="208" font-size="13" font-weight="bold" fill="#1a1a1a">Thruster Mounting</text>
  <rect x="885" y="191" width="136" height="17" rx="8" fill="#fdecea" stroke="#e74c3c" stroke-width="1"/>
  <text x="953" y="203" text-anchor="middle" font-size="9" fill="#922b21" font-weight="bold">⚠ GATED — see below</text>
  <text x="626" y="225" font-size="10" fill="#333">Mechanical clamp mount onto core rod near stern — no adhesive</text>
  <text x="626" y="239" font-size="10" fill="#333">Motor leads routed to enclosure gland · ready immediately, no cure</text>
  <text x="626" y="254" font-size="9" fill="#e74c3c" font-weight="bold">⚠ Stall current (5–8.6A) destroys L298N — firmware trip required first</text>
  <rect x="626" y="263" width="160" height="14" rx="7" fill="#fef9e7" stroke="#d68910" stroke-width="0.8"/>
  <text x="706" y="273" text-anchor="middle" font-size="8" fill="#7d6608">↗ hull_construction_guide.md</text>
  <!-- icon: propeller + warning -->
  <g transform="translate(930,197)">
    <!-- warning triangle -->
    <polygon points="34,4 58,46 10,46" fill="#f39c12" stroke="#d68910" stroke-width="1.5"/>
    <text x="34" y="39" text-anchor="middle" font-size="18" font-weight="bold" fill="#fff">!</text>
    <!-- propeller below -->
    <circle cx="34" cy="64" r="10" fill="#ddd" stroke="#999" stroke-width="1"/>
    <line x1="34" y1="54" x2="34" y2="74" stroke="#888" stroke-width="3"/>
    <line x1="24" y1="64" x2="44" y2="64" stroke="#888" stroke-width="3"/>
    <text x="34" y="84" text-anchor="middle" font-size="8" fill="#e74c3c">GATED</text>
  </g>

  <!-- 🔴 BENCH TEST GATE -->
  <rect x="580" y="286" width="440" height="24" rx="12" fill="#fdecea" stroke="#e74c3c" stroke-width="1.5"/>
  <text x="800" y="302" text-anchor="middle" font-size="11" fill="#922b21" font-weight="bold">🔴  BENCH TEST GATE — stall current measured + thrust ≥150g confirmed + firmware trip verified</text>

  <!-- down arrow 7→9 -->
  <line x1="800" y1="310" x2="800" y2="324" stroke="#555" stroke-width="2" marker-end="url(#arrowFlow)"/>

  <!-- ──────────────────── PHASE 8 ──────────────────── -->
  <!-- color: #16a085 (teal / Integration) y=326 -->
  <rect x="572" y="328" width="460" height="92" rx="8" fill="#a2d9ce" opacity="0.5"/>
  <rect x="570" y="326" width="460" height="92" rx="8" fill="white" filter="url(#shadow)"/>
  <rect x="570" y="326" width="12" height="92" rx="6" fill="#16a085"/>
  <circle cx="600" cy="372" r="18" fill="#16a085"/>
  <text x="600" y="377" text-anchor="middle" font-size="15" font-weight="bold" fill="white">8</text>
  <text x="626" y="344" font-size="13" font-weight="bold" fill="#1a1a1a">Cable Glands &amp; Enclosure Sealing</text>
  <rect x="940" y="327" width="82" height="17" rx="8" fill="#ecf0f1"/>
  <text x="981" y="339" text-anchor="middle" font-size="9" fill="#555">~1 hr</text>
  <text x="626" y="361" font-size="10" fill="#333">7× M16 glands (motors×2, JSN, coax, LiPo, UART, spare)</text>
  <text x="626" y="375" font-size="10" fill="#333">Load electronics · torque glands · IP67 gasket seated all sides</text>
  <text x="626" y="390" font-size="9" fill="#888">Bolt enclosure to deck with 4× M4 stainless bolts + washers</text>
  <rect x="626" y="399" width="140" height="14" rx="7" fill="#eaf2ff" stroke="#16a085" stroke-width="0.8"/>
  <text x="696" y="409" text-anchor="middle" font-size="8" fill="#0e6655">↗ wiring_overview.svg</text>
  <!-- icon: enclosure with cables entering -->
  <g transform="translate(930,332)">
    <rect x="16" y="16" width="40" height="46" rx="4" fill="#f0f0f0" stroke="#888" stroke-width="1.5"/>
    <!-- cable gland lines entering from sides -->
    <line x1="0"  y1="28" x2="16" y2="28" stroke="#c0392b" stroke-width="3"/>
    <line x1="0"  y1="42" x2="16" y2="42" stroke="#9b59b6" stroke-width="3"/>
    <line x1="56" y1="28" x2="72" y2="28" stroke="#e67e22" stroke-width="3"/>
    <line x1="56" y1="42" x2="72" y2="42" stroke="#2980b9" stroke-width="3"/>
    <!-- gland dots -->
    <circle cx="16" cy="28" r="4" fill="#555"/>
    <circle cx="16" cy="42" r="4" fill="#555"/>
    <circle cx="56" cy="28" r="4" fill="#555"/>
    <circle cx="56" cy="42" r="4" fill="#555"/>
    <text x="36" y="78" text-anchor="middle" font-size="8" fill="#888">GLANDS</text>
  </g>

  <!-- down arrow 9→10 -->
  <line x1="800" y1="418" x2="800" y2="432" stroke="#555" stroke-width="2" marker-end="url(#arrowFlow)"/>

  <!-- ──────────────────── PHASE 9 ──────────────────── -->
  <!-- color: #1abc9c (emerald / Final check) y=434 -->
  <rect x="572" y="436" width="460" height="92" rx="8" fill="#a9dfbf" opacity="0.5"/>
  <rect x="570" y="434" width="460" height="92" rx="8" fill="white" filter="url(#shadow)"/>
  <rect x="570" y="434" width="12" height="92" rx="6" fill="#1abc9c"/>
  <circle cx="600" cy="480" r="18" fill="#1abc9c"/>
  <text x="600" y="485" text-anchor="middle" font-size="14" font-weight="bold" fill="white">9</text>
  <text x="626" y="452" font-size="13" font-weight="bold" fill="#1a1a1a">Final Integration Checklist</text>
  <rect x="940" y="435" width="82" height="17" rx="8" fill="#ecf0f1"/>
  <text x="981" y="447" text-anchor="middle" font-size="9" fill="#555">~1 hr</text>
  <text x="626" y="469" font-size="10" fill="#333">PV-1/2/3 on AD9226 · buck output 4.9–5.1V · vcgencmd = 0x0</text>
  <text x="626" y="483" font-size="10" fill="#333">ROS 2 nodes + UART 8-byte packet verified · star ground confirmed</text>
  <text x="626" y="498" font-size="9" fill="#888">All checks pass → ready for pool test #1 (Week 9, Jul 20)</text>
  <rect x="626" y="507" width="160" height="14" rx="7" fill="#fef9e7" stroke="#d68910" stroke-width="0.8"/>
  <text x="706" y="517" text-anchor="middle" font-size="8" fill="#7d6608">↗ hull_construction_guide.md</text>
  <!-- icon: checklist -->
  <g transform="translate(932,440)">
    <line x1="8" y1="16" x2="62" y2="16" stroke="#ddd" stroke-width="8" stroke-linecap="round"/>
    <line x1="8" y1="30" x2="62" y2="30" stroke="#ddd" stroke-width="8" stroke-linecap="round"/>
    <line x1="8" y1="44" x2="62" y2="44" stroke="#ddd" stroke-width="8" stroke-linecap="round"/>
    <line x1="8" y1="58" x2="62" y2="58" stroke="#ddd" stroke-width="8" stroke-linecap="round"/>
    <text x="10" y="20" font-size="12" fill="#27ae60" font-weight="bold">✓</text>
    <text x="10" y="34" font-size="12" fill="#27ae60" font-weight="bold">✓</text>
    <text x="10" y="48" font-size="12" fill="#27ae60" font-weight="bold">✓</text>
    <text x="10" y="62" font-size="12" fill="#27ae60" font-weight="bold">✓</text>
    <text x="34" y="78" text-anchor="middle" font-size="8" fill="#888">ALL PASS</text>
  </g>

  <!-- ✅ COMPLETE banner -->
  <rect x="580" y="540" width="440" height="24" rx="12" fill="#eafaf1" stroke="#27ae60" stroke-width="1.5"/>
  <text x="800" y="556" text-anchor="middle" font-size="11" fill="#1e8449" font-weight="bold">✅  Hull complete — proceed to pool test #1 (Week 9, Jul 20)</text>

  <!-- ═══════════════ BUILD NOTE (fills remaining right-column space) ═══════════════ -->
  <rect x="572" y="576" width="460" height="86" rx="8" fill="#eafaf1" stroke="#27ae60" stroke-width="1.5" opacity="0.6"/>
  <text x="800" y="598" text-anchor="middle" font-size="12" font-weight="bold" fill="#1e8449">Zero structural cure gates in this design</text>
  <text x="800" y="616" text-anchor="middle" font-size="10" fill="#333">All hull fasteners are mechanical (zip ties, pipe straps, screws, bolts).</text>
  <text x="800" y="631" text-anchor="middle" font-size="10" fill="#333">Only passive wait is the same-day deck sealant dry time (Phase 2).</text>
  <text x="800" y="646" text-anchor="middle" font-size="10" fill="#333">Total build time: ~2 hours hands-on, ~$90–96 in materials.</text>

  <!-- ═══════════════ FILE REFERENCE FOOTER ═══════════════ -->
  <rect x="20" y="674" width="1020" height="72" rx="8" fill="#1a2640" opacity="0.9"/>
  <text x="530" y="694" text-anchor="middle" font-size="12" font-weight="bold" fill="#aab8cc">Connected Reference Files</text>

  <rect x="36"  y="702" width="232" height="34" rx="6" fill="#253553"/>
  <text x="38"  y="714" font-size="9" fill="#aab8cc">📐 Structure &amp; dimensions</text>
  <text x="38"  y="727" font-size="10" fill="#4fc3f7" font-weight="bold">docs/diagrams/vehicle_top_view.svg</text>

  <rect x="278" y="702" width="232" height="34" rx="6" fill="#253553"/>
  <text x="280" y="714" font-size="9" fill="#aab8cc">📏 Heights &amp; waterline</text>
  <text x="280" y="727" font-size="10" fill="#4fc3f7" font-weight="bold">docs/diagrams/vehicle_side_view.svg</text>

  <rect x="520" y="702" width="232" height="34" rx="6" fill="#253553"/>
  <text x="522" y="714" font-size="9" fill="#aab8cc">⚡ Wiring &amp; cable glands</text>
  <text x="522" y="727" font-size="10" fill="#4fc3f7" font-weight="bold">docs/diagrams/wiring_overview.svg</text>

  <rect x="762" y="702" width="262" height="34" rx="6" fill="#253553"/>
  <text x="764" y="714" font-size="9" fill="#aab8cc">📋 Full phase details &amp; BOM</text>
  <text x="764" y="727" font-size="10" fill="#4fc3f7" font-weight="bold">docs/hull_construction_guide.md</text>
</svg>
