<svg xmlns="http://www.w3.org/2000/svg" viewBox="0 0 950 820" font-family="Arial, sans-serif">
  <rect x="0" y="0" width="950" height="820" fill="#ffffff"/>

  <text x="475" y="35" text-anchor="middle" font-size="20" font-weight="bold" fill="#1a1a1a">ASV Vehicle — Top View</text>
  <text x="475" y="56" text-anchor="middle" font-size="12" fill="#555555">Catamaran Hull, PVC Frame — All dimensions in millimeters (mm)</text>

  <!-- Orientation arrow -->
  <line x1="100" y1="90" x2="160" y2="90" stroke="#333" stroke-width="2" marker-end="url(#arrow)"/>
  <text x="170" y="94" font-size="12" fill="#333">Bow (forward)</text>

  <defs>
    <marker id="arrow" markerWidth="10" markerHeight="10" refX="8" refY="3" orient="auto" markerUnits="strokeWidth">
      <path d="M0,0 L0,6 L9,3 z" fill="#333"/>
    </marker>
    <marker id="arrowRed" markerWidth="10" markerHeight="10" refX="8" refY="3" orient="auto" markerUnits="strokeWidth">
      <path d="M0,0 L0,6 L9,3 z" fill="#c0392b"/>
    </marker>
    <!-- Deck hatch pattern -->
    <pattern id="hatch" patternUnits="userSpaceOnUse" width="12" height="12" patternTransform="rotate(45)">
      <line x1="0" y1="0" x2="0" y2="12" stroke="#c9a96e" stroke-width="1" opacity="0.5"/>
    </pattern>
  </defs>

  <!-- ===== PONTOONS (render first — bottom layer) ===== -->
  <!-- scale: 1.1 px/mm; bow x=100; pontoon1 cy=203; pontoon2 cy=643; radius=63px (114.3mm OD) -->
  <rect x="100" y="140" width="770" height="126" rx="63" fill="#d9d9d9" stroke="#666666" stroke-width="2"/>
  <rect x="100" y="580" width="770" height="126" rx="63" fill="#d9d9d9" stroke="#666666" stroke-width="2"/>
  <text x="485" y="133" text-anchor="middle" font-size="12" fill="#555555">Port Pontoon — 4" Sch 40 PVC, 700mm</text>
  <text x="485" y="722" text-anchor="middle" font-size="12" fill="#555555">Stbd Pontoon — 4" Sch 40 PVC, 700mm</text>

  <!-- ===== DECK PLATFORM (sits on cross members, between pontoons) ===== -->
  <!-- Spans CM1 to CM3: x=251 to x=719; between pontoon inner edges: y=266 to y=580 -->
  <!-- Pontoon1 inner edge (bottom of pontoon rect): y=140+126=266  -->
  <!-- Pontoon2 inner edge (top of pontoon rect): y=580              -->
  <rect x="251" y="266" width="468" height="314" fill="#e8d5b0" stroke="#9a6a1f" stroke-width="2"/>
  <rect x="251" y="266" width="468" height="314" fill="url(#hatch)" opacity="0.4"/>
  <text x="375" y="545" text-anchor="middle" font-size="11" fill="#7d5a1e">Deck Platform</text>
  <text x="375" y="559" text-anchor="middle" font-size="10" fill="#7d5a1e">(marine ply / Al sheet)</text>

  <!-- Dimension: platform span 400mm (CM1 to CM3 = 400mm) -->
  <line x1="251" y1="255" x2="719" y2="255" stroke="#7d5a1e" stroke-width="1"/>
  <line x1="251" y1="249" x2="251" y2="261" stroke="#7d5a1e" stroke-width="1"/>
  <line x1="719" y1="249" x2="719" y2="261" stroke="#7d5a1e" stroke-width="1"/>
  <text x="485" y="247" text-anchor="middle" font-size="10" fill="#7d5a1e">400mm (CM1 to CM3)</text>

  <!-- ===== CROSS MEMBERS (1" PVC, 28px wide = 25.4mm×1.1, centered on their mm marks) ===== -->
  <!-- CM1 at 150mm: x_center=265, half-width=14 → rect x=251                                -->
  <!-- CM2 at 350mm: x_center=485, half-width=14 → rect x=471                                -->
  <!-- CM3 at 550mm: x_center=705, half-width=14 → rect x=691                                -->
  <rect x="251" y="203" width="28" height="440" fill="#aaaaaa" stroke="#555555" stroke-width="1.5"/>
  <rect x="471" y="203" width="28" height="440" fill="#aaaaaa" stroke="#555555" stroke-width="1.5"/>
  <rect x="691" y="203" width="28" height="440" fill="#aaaaaa" stroke="#555555" stroke-width="1.5"/>

  <!-- Cross member position labels -->
  <text x="265" y="186" text-anchor="middle" font-size="11" fill="#444">150mm</text>
  <text x="485" y="186" text-anchor="middle" font-size="11" fill="#444">350mm</text>
  <text x="705" y="186" text-anchor="middle" font-size="11" fill="#444">550mm</text>
  <text x="485" y="173" text-anchor="middle" font-size="11" fill="#444">Cross members — 1" PVC (×3), spanning 40cm beam</text>

  <!-- ===== BOW MOUNT BRACE (mast foot ties back to CM1 via a short brace) ===== -->
  <!-- Center line at y=423 from CM1 front edge (x=251) to mast center (x=140) -->
  <line x1="140" y1="423" x2="251" y2="423" stroke="#9a6a1f" stroke-width="4"/>
  <text x="195" y="415" text-anchor="middle" font-size="9" fill="#7d5a1e">bow brace</text>

  <!-- ===== ELECTRONICS ENCLOSURE (160×160mm → 176×176px, centered on platform) ===== -->
  <rect x="397" y="335" width="176" height="176" fill="#aed6f1" stroke="#1f6feb" stroke-width="2.5"/>
  <text x="485" y="408" text-anchor="middle" font-size="12" fill="#0b3d91" font-weight="bold">Electronics</text>
  <text x="485" y="424" text-anchor="middle" font-size="12" fill="#0b3d91" font-weight="bold">Enclosure</text>
  <text x="485" y="440" text-anchor="middle" font-size="11" fill="#0b3d91">160 × 160mm</text>
  <text x="485" y="454" text-anchor="middle" font-size="10" fill="#0b3d91">(IP67, Otdorpatio B0DX781Z3W)</text>

  <!-- Internal electronics callout (green circles) -->
  <circle cx="430" cy="370" r="14" fill="#2ecc71" stroke="#1e8449" stroke-width="1.5"/>
  <text x="430" y="374" text-anchor="middle" font-size="9" fill="#0b3d24">Pi 4</text>
  <circle cx="540" cy="370" r="14" fill="#2ecc71" stroke="#1e8449" stroke-width="1.5"/>
  <text x="540" y="374" text-anchor="middle" font-size="8" fill="#0b3d24">FPGA</text>

  <!-- ===== MAST (1" PVC, at bow, centered on beam) ===== -->
  <circle cx="140" cy="423" r="16" fill="#cccccc" stroke="#555555" stroke-width="2"/>
  <text x="140" y="458" text-anchor="middle" font-size="11" fill="#444">Mast</text>
  <text x="140" y="471" text-anchor="middle" font-size="10" fill="#444">1" PVC</text>
  <text x="140" y="484" text-anchor="middle" font-size="9" fill="#444">TCT40-16R</text>
  <text x="140" y="497" text-anchor="middle" font-size="9" fill="#444">at top</text>

  <!-- ===== JSN-SR04T sonar (bow center, facing forward) ===== -->
  <rect x="88" y="410" width="24" height="26" fill="#f1c40f" stroke="#9a7d0a" stroke-width="1.5"/>
  <line x1="100" y1="410" x2="100" y2="395" stroke="#9a7d0a" stroke-width="1.5" marker-end="url(#arrow)"/>
  <text x="55" y="382" text-anchor="middle" font-size="10" fill="#7d6608">JSN-SR04T</text>
  <text x="55" y="394" text-anchor="middle" font-size="9" fill="#7d6608">(fwd-facing)</text>

  <!-- ===== THRUSTERS (stern, one per pontoon) ===== -->
  <rect x="848" y="188" width="36" height="28" fill="#e74c3c" stroke="#922b21" stroke-width="1.5"/>
  <text x="866" y="178" text-anchor="middle" font-size="10" fill="#922b21">Thruster (P)</text>
  <rect x="848" y="630" width="36" height="28" fill="#e74c3c" stroke="#922b21" stroke-width="1.5"/>
  <text x="866" y="676" text-anchor="middle" font-size="10" fill="#922b21">Thruster (S)</text>

  <!-- ===== DIMENSION LINES ===== -->
  <!-- Pontoon length: 700mm -->
  <line x1="100" y1="758" x2="870" y2="758" stroke="#333" stroke-width="1"/>
  <line x1="100" y1="751" x2="100" y2="765" stroke="#333" stroke-width="1"/>
  <line x1="870" y1="751" x2="870" y2="765" stroke="#333" stroke-width="1"/>
  <text x="485" y="776" text-anchor="middle" font-size="13" fill="#000" font-weight="bold">700mm (pontoon length)</text>

  <!-- Beam: 400mm pontoon centerline to centerline -->
  <line x1="930" y1="203" x2="930" y2="643" stroke="#333" stroke-width="1"/>
  <line x1="922" y1="203" x2="938" y2="203" stroke="#333" stroke-width="1"/>
  <line x1="922" y1="643" x2="938" y2="643" stroke="#333" stroke-width="1"/>
  <text x="945" y="423" text-anchor="middle" font-size="13" fill="#000" font-weight="bold" transform="rotate(90,945,423)">400mm beam (pontoon CL to CL)</text>

  <!-- ===== LEGEND ===== -->
  <g transform="translate(100,793)">
    <rect x="0"   y="0" width="14" height="14" fill="#d9d9d9" stroke="#666"/>
    <text x="18"  y="11" font-size="10" fill="#333">PVC frame</text>

    <rect x="90"  y="0" width="14" height="14" fill="#e8d5b0" stroke="#9a6a1f"/>
    <text x="108" y="11" font-size="10" fill="#333">Deck platform</text>

    <rect x="200" y="0" width="14" height="14" fill="#aed6f1" stroke="#1f6feb"/>
    <text x="218" y="11" font-size="10" fill="#333">Enclosure</text>

    <rect x="290" y="0" width="14" height="14" fill="#2ecc71" stroke="#1e8449"/>
    <text x="308" y="11" font-size="10" fill="#333">Electronics</text>

    <rect x="390" y="0" width="14" height="14" fill="#e74c3c" stroke="#922b21"/>
    <text x="408" y="11" font-size="10" fill="#333">Thrusters</text>

    <rect x="470" y="0" width="14" height="14" fill="#f1c40f" stroke="#9a7d0a"/>
    <text x="488" y="11" font-size="10" fill="#333">Sensor</text>
  </g>
</svg>
