<svg xmlns="http://www.w3.org/2000/svg" viewBox="0 0 950 820" font-family="Arial, sans-serif">
  <rect x="0" y="0" width="950" height="820" fill="#ffffff"/>

  <text x="475" y="35" text-anchor="middle" font-size="20" font-weight="bold" fill="#1a1a1a">ASV Vehicle — Top View</text>
  <text x="475" y="56" text-anchor="middle" font-size="12" fill="#555555">Catamaran Hull, PVC Frame — All dimensions in millimeters (mm)</text>

  <!-- Orientation arrow -->
  <line x1="100" y1="90" x2="160" y2="90" stroke="#333" stroke-width="2" marker-end="url(#arrow)"/>
  <text x="170" y="94" font-size="12" fill="#333">Bow (forward)</text>
  <defs>
    <marker id="arrow" markerWidth="10" markerHeight="10" refX="8" refY="3" orient="auto" markerUnits="strokeWidth">
      <path d="M0,0 L0,6 L9,3 z" fill="#333"/>
    </marker>
    <marker id="arrowRed" markerWidth="10" markerHeight="10" refX="8" refY="3" orient="auto" markerUnits="strokeWidth">
      <path d="M0,0 L0,6 L9,3 z" fill="#c0392b"/>
    </marker>
  </defs>

  <!-- Pontoons: 4in Sch40 PVC, 70cm long, centerlines 400mm apart -->
  <!-- scale: 1.1 px/mm, bow x=100, pontoon1 cy=203, pontoon2 cy=643, pontoon radius=63px (114.3mm OD) -->
  <rect x="100" y="140" width="770" height="126" rx="63" fill="#d9d9d9" stroke="#666666" stroke-width="2"/>
  <rect x="100" y="580" width="770" height="126" rx="63" fill="#d9d9d9" stroke="#666666" stroke-width="2"/>
  <text x="485" y="135" text-anchor="middle" font-size="12" fill="#555555">Port Pontoon — 4" Sch 40 PVC, 700mm</text>
  <text x="485" y="722" text-anchor="middle" font-size="12" fill="#555555">Stbd Pontoon — 4" Sch 40 PVC, 700mm</text>

  <!-- Cross members at 150, 350, 550mm along pontoon length, spanning beam -->
  <rect x="260" y="203" width="10" height="440" fill="#999999" stroke="#555555" stroke-width="1.5"/>
  <rect x="480" y="203" width="10" height="440" fill="#999999" stroke="#555555" stroke-width="1.5"/>
  <rect x="700" y="203" width="10" height="440" fill="#999999" stroke="#555555" stroke-width="1.5"/>
  <text x="265" y="195" text-anchor="middle" font-size="11" fill="#444">150mm</text>
  <text x="485" y="195" text-anchor="middle" font-size="11" fill="#444">350mm</text>
  <text x="705" y="195" text-anchor="middle" font-size="11" fill="#444">550mm</text>
  <text x="490" y="178" text-anchor="middle" font-size="11" fill="#444">Cross members — 1" PVC (×3)</text>

  <!-- Electronics enclosure, mounted on cross members between pontoons -->
  <!-- 160x160mm footprint (corrected from CLAUDE.md / Otdorpatio B0DX781Z3W spec; see note) -->
  <rect x="397" y="335" width="176" height="176" fill="#aed6f1" stroke="#1f6feb" stroke-width="2.5"/>
  <text x="485" y="418" text-anchor="middle" font-size="12" fill="#0b3d91" font-weight="bold">Electronics</text>
  <text x="485" y="434" text-anchor="middle" font-size="12" fill="#0b3d91" font-weight="bold">Enclosure</text>
  <text x="485" y="450" text-anchor="middle" font-size="11" fill="#0b3d91">160 × 160mm</text>
  <text x="485" y="464" text-anchor="middle" font-size="10" fill="#0b3d91">(IP67, Otdorpatio)</text>

  <!-- internal electronics callout (green) -->
  <circle cx="430" cy="375" r="14" fill="#2ecc71" stroke="#1e8449" stroke-width="1.5"/>
  <text x="430" y="379" text-anchor="middle" font-size="9" fill="#0b3d24">Pi</text>
  <circle cx="540" cy="375" r="14" fill="#2ecc71" stroke="#1e8449" stroke-width="1.5"/>
  <text x="540" y="379" text-anchor="middle" font-size="8" fill="#0b3d24">FPGA</text>
  <text x="485" y="500" text-anchor="middle" font-size="10" fill="#1e8449">Green = electronics inside (Pi 4, Tang Nano, preamp)</text>

  <!-- Mast at bow, centered -->
  <circle cx="140" cy="423" r="16" fill="#d9d9d9" stroke="#666666" stroke-width="2"/>
  <line x1="140" y1="423" x2="100" y2="423" stroke="#999" stroke-width="1" stroke-dasharray="3,3"/>
  <text x="140" y="465" text-anchor="middle" font-size="11" fill="#444">Mast</text>
  <text x="140" y="479" text-anchor="middle" font-size="10" fill="#444">1" PVC, centered</text>

  <!-- JSN-SR04T sonar, bow center, facing forward -->
  <rect x="92" y="410" width="20" height="26" fill="#f1c40f" stroke="#9a7d0a" stroke-width="1.5"/>
  <text x="60" y="380" text-anchor="middle" font-size="10" fill="#7d6608">JSN-SR04T</text>
  <text x="60" y="392" text-anchor="middle" font-size="9" fill="#7d6608">(facing fwd)</text>
  <line x1="102" y1="408" x2="102" y2="392" stroke="#7d6608" stroke-width="1.5" marker-end="url(#arrow)"/>

  <!-- Thrusters at stern, one per pontoon -->
  <rect x="850" y="190" width="34" height="26" fill="#e74c3c" stroke="#922b21" stroke-width="1.5"/>
  <text x="867" y="180" text-anchor="middle" font-size="10" fill="#922b21">Thruster (P)</text>
  <rect x="850" y="630" width="34" height="26" fill="#e74c3c" stroke="#922b21" stroke-width="1.5"/>
  <text x="867" y="675" text-anchor="middle" font-size="10" fill="#922b21">Thruster (S)</text>

  <!-- Dimension lines -->
  <!-- Length 700mm -->
  <line x1="100" y1="760" x2="870" y2="760" stroke="#333" stroke-width="1"/>
  <line x1="100" y1="752" x2="100" y2="768" stroke="#333" stroke-width="1"/>
  <line x1="870" y1="752" x2="870" y2="768" stroke="#333" stroke-width="1"/>
  <text x="485" y="778" text-anchor="middle" font-size="13" fill="#000" font-weight="bold">700mm (pontoon length)</text>

  <!-- Beam 400mm (centerline to centerline) -->
  <line x1="930" y1="203" x2="930" y2="643" stroke="#333" stroke-width="1"/>
  <line x1="922" y1="203" x2="938" y2="203" stroke="#333" stroke-width="1"/>
  <line x1="922" y1="643" x2="938" y2="643" stroke="#333" stroke-width="1"/>
  <text x="945" y="423" text-anchor="middle" font-size="13" fill="#000" font-weight="bold" transform="rotate(90,945,423)">400mm beam (pontoon centerline spacing)</text>

  <!-- Legend -->
  <g transform="translate(100,790)">
    <rect x="0" y="0" width="14" height="14" fill="#d9d9d9" stroke="#666"/>
    <text x="20" y="11" font-size="10" fill="#333">PVC</text>
    <rect x="70" y="0" width="14" height="14" fill="#aed6f1" stroke="#1f6feb"/>
    <text x="90" y="11" font-size="10" fill="#333">Enclosure</text>
    <rect x="170" y="0" width="14" height="14" fill="#2ecc71" stroke="#1e8449"/>
    <text x="190" y="11" font-size="10" fill="#333">Electronics</text>
    <rect x="280" y="0" width="14" height="14" fill="#e74c3c" stroke="#922b21"/>
    <text x="300" y="11" font-size="10" fill="#333">Thrusters</text>
    <rect x="370" y="0" width="14" height="14" fill="#f1c40f" stroke="#9a7d0a"/>
    <text x="390" y="11" font-size="10" fill="#333">Sensors</text>
  </g>
</svg>
